<svg xmlns="http://www.w3.org/2000/svg" width="512" height="512"><linearGradient id="a" gradientUnits="userSpaceOnUse" x1="175" x2="175" y1="512" y2="62"><stop offset="0" stop-color="#addcff"/><stop offset=".503" stop-color="#eaf6ff"/><stop offset="1" stop-color="#eaf6ff"/></linearGradient><linearGradient id="b" gradientUnits="userSpaceOnUse" x1="278.5" x2="278.5" y1="512" y2="0"><stop offset="0" stop-color="#5558ff"/><stop offset="1" stop-color="#00c0ff"/></linearGradient><path d="M241.97 497V297c0-12.718 14.833-19.665 24.603-11.523L350 355v-97.17l-1.397 1.239a15.001 15.001 0 01-17.453 1.768l-43.3-25a15 15 0 01-7.195-15.998l4.068-19.881a114.168 114.168 0 01-13.176-22.875l-19.29-6.43A15 15 0 01242 156.423v-50a15 15 0 0110.257-14.23l19.289-6.429a114.244 114.244 0 0113.176-22.876l-.181-.888H15C6.716 62 0 68.716 0 77v420c0 8.284 6.716 15 15 15h241.97c-8.284 0-15-6.716-15-15z" fill="url(#a)" data-original="url(#SVGID_1_)"/><path d="M180 137H60c-8.284 0-15-6.716-15-15s6.716-15 15-15h120c8.284 0 15 6.716 15 15s-6.716 15-15 15zm15 45c0-8.284-6.716-15-15-15H60c-8.284 0-15 6.716-15 15s6.716 15 15 15h120c8.284 0 15-6.716 15-15zm317-75.576v50a15 15 0 01-10.257 14.23l-19.289 6.43a114.2 114.2 0 01-13.177 22.875l4.069 19.881a15 15 0 01-7.195 15.998l-43.301 25a15 15 0 01-17.452-1.768l-15.177-13.458c-8.995 1.091-17.445 1.091-26.442 0l-15.176 13.458a15.001 15.001 0 01-17.453 1.768l-43.3-25a15 15 0 01-7.195-15.998l4.068-19.881a114.168 114.168 0 01-13.176-22.875l-19.29-6.43A15 15 0 01242 156.424v-50a15 15 0 0110.257-14.23l19.289-6.429a114.244 114.244 0 0113.176-22.876l-4.068-19.881a15.002 15.002 0 017.195-15.998l43.301-25a15.001 15.001 0 0117.452 1.767l15.177 13.459c9.002-1.09 17.44-1.09 26.441 0l15.177-13.458a15 15 0 0117.452-1.768l43.301 25a14.998 14.998 0 017.195 15.998l-4.069 19.881a114.18 114.18 0 0113.177 22.876l19.289 6.429A14.999 14.999 0 01512 106.424zm-85 25c0-27.614-22.385-50-50-50s-50 22.386-50 50c0 27.615 22.385 50 50 50s50-22.386 50-50zm79.573 354.053l-240-200c-9.77-8.142-24.603-1.194-24.603 11.523v200c0 8.284 6.716 15 15 15h240c14.03 0 20.381-17.542 9.603-26.523z" fill="url(#b)" data-original="url(#SVGID_00000075861877367979067760000006188658437321108384_)"/></svg>