<svg version="1.2" xmlns="http://www.w3.org/2000/svg" width="25" height="25"><path d="M24.9 11c.1.5.1 1 .1 1.6 0 4.5-2.3 8.4-6.2 10.7l-2.5-4.2c1.5-.9 2.7-2.3 3.3-3.9h-5.7c-.5 0-.9-.4-.9-.8v-3.3c0-.4.4-.8.9-.8h10.2c.4 0 .7.3.8.7z" fill="#167ee6"/><path d="M16.3 19.1l2.4 4.2c-1.8 1.1-3.9 1.7-6.2 1.7-4.6 0-8.7-2.5-10.8-6.3l4.2-2.4c1.3 2.3 3.8 3.8 6.6 3.8 1.4 0 2.7-.4 3.8-1z" fill="#12b347"/><path d="M12.5 25v-4.9c1.4 0 2.7-.4 3.8-1l2.5 4.2c-1.9 1.1-4 1.7-6.3 1.7z" fill="#0f993e"/><path d="M5.9 16.3l-4.2 2.4C.6 16.9 0 14.8 0 12.5c0-2.3.6-4.4 1.7-6.2l4.2 2.4c-.6 1.1-1 2.4-1 3.8s.4 2.7 1 3.8z" fill="#ffd500"/><path d="M5.9 8.7L1.7 6.3C3.8 2.5 7.9 0 12.5 0c3.1 0 6 1.2 8.2 3.1.3.3.4.8 0 1.2l-2.3 2.3c-.3.3-.7.3-1.1 0-1.3-1.1-3-1.7-4.8-1.7-2.8 0-5.3 1.5-6.6 3.8z" fill="#ff4b26"/><path d="M12.5 4.9V0c3.1 0 6 1.2 8.2 3.1.3.3.4.8 0 1.2l-2.3 2.3c-.3.3-.7.3-1.1 0-1.3-1.1-3-1.7-4.8-1.7z" fill="#d93f21"/></svg>