<svg height="512" width="512" xmlns="http://www.w3.org/2000/svg"><linearGradient id="a" gradientUnits="userSpaceOnUse" x1="256" x2="256" y1="512" y2="0"><stop offset="0" stop-color="#addcff"/><stop offset=".503" stop-color="#eaf6ff"/><stop offset="1" stop-color="#eaf6ff"/></linearGradient><linearGradient id="b" gradientUnits="userSpaceOnUse" x1="256" x2="256" y1="407" y2="105"><stop offset="0" stop-color="#00c0ff"/><stop offset="1" stop-color="#5558ff"/></linearGradient><circle cx="256" cy="256" fill="url(#a)" r="256"/><path d="M327.059 389.235h-26.647v-35.529h-88.823v35.529h-26.647c-4.909 0-8.882 3.973-8.882 8.882s3.973 8.882 8.882 8.882H327.06c4.909 0 8.882-3.973 8.882-8.882s-3.974-8.882-8.883-8.882zM256 264.882c-4.892 0-8.882 3.981-8.882 8.882s3.99 8.882 8.882 8.882 8.882-3.981 8.882-8.882-3.99-8.882-8.882-8.882zM380.353 105H131.647C116.953 105 105 116.953 105 131.647v177.647c0 14.694 11.953 26.647 26.647 26.647h248.706c14.694 0 26.647-11.953 26.647-26.647V131.647C407 116.953 395.047 105 380.353 105zM256 300.412c-14.694 0-26.647-11.953-26.647-26.647s11.953-26.647 26.647-26.647 26.647 11.953 26.647 26.647-11.953 26.647-26.647 26.647zm43.961-58.048a8.878 8.878 0 01-12.56 0c-17.313-17.313-45.487-17.313-62.801 0-3.47 3.47-9.091 3.47-12.56 0s-3.47-9.091 0-12.561c24.253-24.235 63.668-24.235 87.921 0a8.881 8.881 0 010 12.561zm25.12-25.129a8.88 8.88 0 01-12.56 0c-31.158-31.158-81.884-31.158-113.042 0a8.88 8.88 0 01-12.56 0 8.88 8.88 0 010-12.561c38.097-38.097 100.065-38.097 138.162 0a8.88 8.88 0 010 12.561zm25.138-25.12a8.878 8.878 0 01-12.56 0c-45.036-45.019-118.281-45.019-163.317 0a8.878 8.878 0 01-12.56 0 8.878 8.878 0 010-12.56c51.941-51.958 136.497-51.958 188.438 0a8.881 8.881 0 01-.001 12.56z" fill="url(#b)"/></svg>